<?xml version="1.0" encoding="UTF-8" standalone="no"?><!DOCTYPE svg PUBLIC "-//W3C//DTD SVG 1.1//EN" "http://www.w3.org/Graphics/SVG/1.1/DTD/svg11.dtd"><svg width="1080px" height="1080px" version="1.1" xmlns="http://www.w3.org/2000/svg" xmlns:xlink="http://www.w3.org/1999/xlink" xml:space="preserve" xmlns:serif="http://www.serif.com/" style="fill-rule:evenodd;clip-rule:evenodd;stroke-linejoin:round;stroke-miterlimit:2;"><path d="M1080,270L1080,810C1080,959 959,1080 810,1080L270,1080C121,1080 0,959 0,810L0,270C0,121 121,0 270,0L810,0C959,0 1080,121 1080,270Z" style="fill:white;"/><path d="M1080,270L1080,810C1080,959 959,1080 810,1080L270,1080C121,1080 0,959 0,810L0,270C0,121 121,0 270,0L810,0C959,0 1080,121 1080,270ZM1059,270C1059,132 948,21 810,21L270,21C132,21 21,132 21,270L21,810C21,948 132,1059 270,1059L810,1059C948,1059 1059,948 1059,810L1059,270Z"/><g transform="matrix(0.43124,0,0,0.422479,35.400319,299.728548)"><g transform="matrix(1060.922328,0,0,1060.922328,136.762402,947.467363)"><path d="M0,-0L0,-1L0,-1L1,-0L0,-0L1,-1L1,-1L1,-0L1,-0L1,-1L1,-1L1,-0L0,-0L0,-1L0,-1L0,-0L0,-0Z" style="fill-rule:nonzero;"/></g><g transform="matrix(1060.922328,0,0,1060.922328,1263.461914,947.467363)"><path d="M0,0C0,0 0,0 0,-0C0,-0 0,-0 0,-0C0,-0 0,-0 0,-0C0,-0 0,-0 0,-0L0,-0C0,-0 0,-0 0,-0C0,-0 0,-0 0,-0C0,-0 0,-0 0,-0C0,-0 0,-0 0,-0C0,-0 1,-0 1,-0C1,-0 1,-0 1,-0C1,-0 1,-0 1,-0C1,-0 1,-0 1,-0C1,-0 1,-0 1,-0C1,-0 1,-0 1,-0L0,-0C0,-0 0,-0 0,-0C0,-0 0,-0 0,-0C0,-0 0,-0 0,-0C0,-0 0,-0 0,-1C0,-1 0,-1 0,-1C0,-1 0,-1 0,-1C0,-1 0,-1 0,-1C0,-1 0,-1 0,-1C0,-1 1,-1 1,-1C1,-1 1,-1 1,-1C1,-1 1,-1 1,-1C1,-1 1,-1 1,-1L1,-1C1,-1 1,-1 1,-1C1,-1 1,-1 1,-1C0,-1 0,-1 0,-1C0,-1 0,-1 0,-1C0,-1 0,-1 0,-1C0,-1 0,-1 0,-1C0,-1 0,-0 0,-0C0,-0 0,-0 0,-0C0,-0 0,-0 0,-0L1,-0C1,-0 1,-0 1,-0C1,-0 1,-0 1,-0C1,-0 1,-0 1,-0C1,-0 1,-0 1,-0C1,-0 1,-0 1,-0C1,-0 1,-0 1,-0C1,0 1,0 0,0Z" style="fill-rule:nonzero;"/></g></g></svg>